<mxfile host="app.diagrams.net" agent="Mozilla/5.0 (Windows NT 10.0; Win64; x64) AppleWebKit/537.36 (KHTML, like Gecko) Chrome/141.0.0.0 Safari/537.36 Edg/141.0.0.0" version="28.2.5">
  <diagram name="Страница — 1" id="lfdWWgCuKbMi5LVrJttY">
    <mxGraphModel dx="1034" dy="548" grid="1" gridSize="10" guides="1" tooltips="1" connect="1" arrows="1" fold="1" page="1" pageScale="1" pageWidth="1169" pageHeight="827" math="0" shadow="0">
      <root>
        <mxCell id="0" />
        <mxCell id="1" parent="0" />
        <mxCell id="JcD0nTXZujLrFrjOI5Ah-1" value="orders" style="shape=table;startSize=30;container=1;collapsible=1;childLayout=tableLayout;fixedRows=1;rowLines=0;fontStyle=0;align=center;resizeLast=1;html=1;whiteSpace=wrap;swimlaneFillColor=default;fillColor=#d5e8d4;strokeColor=light-dark(#0d0d0d, #446e2c);fontSize=16;" vertex="1" parent="1">
          <mxGeometry x="380" y="290" width="300" height="210" as="geometry">
            <mxRectangle x="170" y="160" width="80" height="30" as="alternateBounds" />
          </mxGeometry>
        </mxCell>
        <mxCell id="JcD0nTXZujLrFrjOI5Ah-2" value="" style="shape=tableRow;horizontal=0;startSize=0;swimlaneHead=0;swimlaneBody=0;fillColor=none;collapsible=0;dropTarget=0;points=[[0,0.5],[1,0.5]];portConstraint=eastwest;top=0;left=0;right=0;bottom=1;html=1;" vertex="1" parent="JcD0nTXZujLrFrjOI5Ah-1">
          <mxGeometry y="30" width="300" height="30" as="geometry" />
        </mxCell>
        <mxCell id="JcD0nTXZujLrFrjOI5Ah-3" value="PK" style="shape=partialRectangle;connectable=0;fillColor=none;top=0;left=0;bottom=0;right=0;fontStyle=1;overflow=hidden;html=1;whiteSpace=wrap;fontSize=14;" vertex="1" parent="JcD0nTXZujLrFrjOI5Ah-2">
          <mxGeometry width="60" height="30" as="geometry">
            <mxRectangle width="60" height="30" as="alternateBounds" />
          </mxGeometry>
        </mxCell>
        <mxCell id="JcD0nTXZujLrFrjOI5Ah-4" value="id" style="shape=partialRectangle;connectable=0;fillColor=none;top=0;left=0;bottom=0;right=0;align=left;spacingLeft=6;fontStyle=5;overflow=hidden;html=1;whiteSpace=wrap;fontSize=14;" vertex="1" parent="JcD0nTXZujLrFrjOI5Ah-2">
          <mxGeometry x="60" width="120" height="30" as="geometry">
            <mxRectangle width="120" height="30" as="alternateBounds" />
          </mxGeometry>
        </mxCell>
        <mxCell id="JcD0nTXZujLrFrjOI5Ah-5" value="INTEGER" style="shape=partialRectangle;connectable=0;fillColor=none;top=0;left=0;bottom=0;right=0;align=left;spacingLeft=6;fontStyle=5;overflow=hidden;html=1;whiteSpace=wrap;fontSize=14;" vertex="1" parent="JcD0nTXZujLrFrjOI5Ah-2">
          <mxGeometry x="180" width="120" height="30" as="geometry">
            <mxRectangle width="120" height="30" as="alternateBounds" />
          </mxGeometry>
        </mxCell>
        <mxCell id="JcD0nTXZujLrFrjOI5Ah-6" value="" style="shape=tableRow;horizontal=0;startSize=0;swimlaneHead=0;swimlaneBody=0;fillColor=none;collapsible=0;dropTarget=0;points=[[0,0.5],[1,0.5]];portConstraint=eastwest;top=0;left=0;right=0;bottom=0;html=1;" vertex="1" parent="JcD0nTXZujLrFrjOI5Ah-1">
          <mxGeometry y="60" width="300" height="30" as="geometry" />
        </mxCell>
        <mxCell id="JcD0nTXZujLrFrjOI5Ah-7" value="" style="shape=partialRectangle;connectable=0;fillColor=none;top=0;left=0;bottom=0;right=0;editable=1;overflow=hidden;html=1;whiteSpace=wrap;fontSize=14;" vertex="1" parent="JcD0nTXZujLrFrjOI5Ah-6">
          <mxGeometry width="60" height="30" as="geometry">
            <mxRectangle width="60" height="30" as="alternateBounds" />
          </mxGeometry>
        </mxCell>
        <mxCell id="JcD0nTXZujLrFrjOI5Ah-8" value="name" style="shape=partialRectangle;connectable=0;fillColor=none;top=0;left=0;bottom=0;right=0;align=left;spacingLeft=6;overflow=hidden;html=1;whiteSpace=wrap;fontSize=14;" vertex="1" parent="JcD0nTXZujLrFrjOI5Ah-6">
          <mxGeometry x="60" width="120" height="30" as="geometry">
            <mxRectangle width="120" height="30" as="alternateBounds" />
          </mxGeometry>
        </mxCell>
        <mxCell id="JcD0nTXZujLrFrjOI5Ah-9" value="NVARCHAR" style="shape=partialRectangle;connectable=0;fillColor=none;top=0;left=0;bottom=0;right=0;align=left;spacingLeft=6;overflow=hidden;html=1;whiteSpace=wrap;fontSize=14;" vertex="1" parent="JcD0nTXZujLrFrjOI5Ah-6">
          <mxGeometry x="180" width="120" height="30" as="geometry">
            <mxRectangle width="120" height="30" as="alternateBounds" />
          </mxGeometry>
        </mxCell>
        <mxCell id="JcD0nTXZujLrFrjOI5Ah-10" value="" style="shape=tableRow;horizontal=0;startSize=0;swimlaneHead=0;swimlaneBody=0;fillColor=none;collapsible=0;dropTarget=0;points=[[0,0.5],[1,0.5]];portConstraint=eastwest;top=0;left=0;right=0;bottom=0;html=1;" vertex="1" parent="JcD0nTXZujLrFrjOI5Ah-1">
          <mxGeometry y="90" width="300" height="30" as="geometry" />
        </mxCell>
        <mxCell id="JcD0nTXZujLrFrjOI5Ah-11" value="&lt;b&gt;FK1&lt;/b&gt;" style="shape=partialRectangle;connectable=0;fillColor=none;top=0;left=0;bottom=0;right=0;editable=1;overflow=hidden;html=1;whiteSpace=wrap;fontSize=14;" vertex="1" parent="JcD0nTXZujLrFrjOI5Ah-10">
          <mxGeometry width="60" height="30" as="geometry">
            <mxRectangle width="60" height="30" as="alternateBounds" />
          </mxGeometry>
        </mxCell>
        <mxCell id="JcD0nTXZujLrFrjOI5Ah-12" value="town_id" style="shape=partialRectangle;connectable=0;fillColor=none;top=0;left=0;bottom=0;right=0;align=left;spacingLeft=6;overflow=hidden;html=1;whiteSpace=wrap;fontStyle=1;fontSize=14;" vertex="1" parent="JcD0nTXZujLrFrjOI5Ah-10">
          <mxGeometry x="60" width="120" height="30" as="geometry">
            <mxRectangle width="120" height="30" as="alternateBounds" />
          </mxGeometry>
        </mxCell>
        <mxCell id="JcD0nTXZujLrFrjOI5Ah-13" value="INTEGER" style="shape=partialRectangle;connectable=0;fillColor=none;top=0;left=0;bottom=0;right=0;align=left;spacingLeft=6;overflow=hidden;html=1;whiteSpace=wrap;fontStyle=1;fontSize=14;" vertex="1" parent="JcD0nTXZujLrFrjOI5Ah-10">
          <mxGeometry x="180" width="120" height="30" as="geometry">
            <mxRectangle width="120" height="30" as="alternateBounds" />
          </mxGeometry>
        </mxCell>
        <mxCell id="JcD0nTXZujLrFrjOI5Ah-14" style="shape=tableRow;horizontal=0;startSize=0;swimlaneHead=0;swimlaneBody=0;fillColor=none;collapsible=0;dropTarget=0;points=[[0,0.5],[1,0.5]];portConstraint=eastwest;top=0;left=0;right=0;bottom=0;html=1;" vertex="1" parent="JcD0nTXZujLrFrjOI5Ah-1">
          <mxGeometry y="120" width="300" height="30" as="geometry" />
        </mxCell>
        <mxCell id="JcD0nTXZujLrFrjOI5Ah-15" style="shape=partialRectangle;connectable=0;fillColor=none;top=0;left=0;bottom=0;right=0;editable=1;overflow=hidden;html=1;whiteSpace=wrap;fontStyle=0;fontSize=14;" vertex="1" parent="JcD0nTXZujLrFrjOI5Ah-14">
          <mxGeometry width="60" height="30" as="geometry">
            <mxRectangle width="60" height="30" as="alternateBounds" />
          </mxGeometry>
        </mxCell>
        <mxCell id="JcD0nTXZujLrFrjOI5Ah-16" value="price" style="shape=partialRectangle;connectable=0;fillColor=none;top=0;left=0;bottom=0;right=0;align=left;spacingLeft=6;overflow=hidden;html=1;whiteSpace=wrap;fontStyle=0;fontSize=14;" vertex="1" parent="JcD0nTXZujLrFrjOI5Ah-14">
          <mxGeometry x="60" width="120" height="30" as="geometry">
            <mxRectangle width="120" height="30" as="alternateBounds" />
          </mxGeometry>
        </mxCell>
        <mxCell id="JcD0nTXZujLrFrjOI5Ah-17" value="DECIMAL" style="shape=partialRectangle;connectable=0;fillColor=none;top=0;left=0;bottom=0;right=0;align=left;spacingLeft=6;overflow=hidden;html=1;whiteSpace=wrap;fontStyle=0;fontSize=14;" vertex="1" parent="JcD0nTXZujLrFrjOI5Ah-14">
          <mxGeometry x="180" width="120" height="30" as="geometry">
            <mxRectangle width="120" height="30" as="alternateBounds" />
          </mxGeometry>
        </mxCell>
        <mxCell id="JcD0nTXZujLrFrjOI5Ah-18" style="shape=tableRow;horizontal=0;startSize=0;swimlaneHead=0;swimlaneBody=0;fillColor=none;collapsible=0;dropTarget=0;points=[[0,0.5],[1,0.5]];portConstraint=eastwest;top=0;left=0;right=0;bottom=0;html=1;" vertex="1" parent="JcD0nTXZujLrFrjOI5Ah-1">
          <mxGeometry y="150" width="300" height="30" as="geometry" />
        </mxCell>
        <mxCell id="JcD0nTXZujLrFrjOI5Ah-19" value="FK2" style="shape=partialRectangle;connectable=0;fillColor=none;top=0;left=0;bottom=0;right=0;editable=1;overflow=hidden;html=1;whiteSpace=wrap;fontStyle=1;fontSize=14;" vertex="1" parent="JcD0nTXZujLrFrjOI5Ah-18">
          <mxGeometry width="60" height="30" as="geometry">
            <mxRectangle width="60" height="30" as="alternateBounds" />
          </mxGeometry>
        </mxCell>
        <mxCell id="JcD0nTXZujLrFrjOI5Ah-20" value="customer_id" style="shape=partialRectangle;connectable=0;fillColor=none;top=0;left=0;bottom=0;right=0;align=left;spacingLeft=6;overflow=hidden;html=1;whiteSpace=wrap;fontStyle=1;fontSize=14;" vertex="1" parent="JcD0nTXZujLrFrjOI5Ah-18">
          <mxGeometry x="60" width="120" height="30" as="geometry">
            <mxRectangle width="120" height="30" as="alternateBounds" />
          </mxGeometry>
        </mxCell>
        <mxCell id="JcD0nTXZujLrFrjOI5Ah-21" value="INTEGER" style="shape=partialRectangle;connectable=0;fillColor=none;top=0;left=0;bottom=0;right=0;align=left;spacingLeft=6;overflow=hidden;html=1;whiteSpace=wrap;fontStyle=1;fontSize=14;" vertex="1" parent="JcD0nTXZujLrFrjOI5Ah-18">
          <mxGeometry x="180" width="120" height="30" as="geometry">
            <mxRectangle width="120" height="30" as="alternateBounds" />
          </mxGeometry>
        </mxCell>
        <mxCell id="JcD0nTXZujLrFrjOI5Ah-22" style="shape=tableRow;horizontal=0;startSize=0;swimlaneHead=0;swimlaneBody=0;fillColor=none;collapsible=0;dropTarget=0;points=[[0,0.5],[1,0.5]];portConstraint=eastwest;top=0;left=0;right=0;bottom=0;html=1;" vertex="1" parent="JcD0nTXZujLrFrjOI5Ah-1">
          <mxGeometry y="180" width="300" height="30" as="geometry" />
        </mxCell>
        <mxCell id="JcD0nTXZujLrFrjOI5Ah-23" style="shape=partialRectangle;connectable=0;fillColor=none;top=0;left=0;bottom=0;right=0;editable=1;overflow=hidden;html=1;whiteSpace=wrap;fontStyle=1;fontSize=14;" vertex="1" parent="JcD0nTXZujLrFrjOI5Ah-22">
          <mxGeometry width="60" height="30" as="geometry">
            <mxRectangle width="60" height="30" as="alternateBounds" />
          </mxGeometry>
        </mxCell>
        <mxCell id="JcD0nTXZujLrFrjOI5Ah-24" value="order_date" style="shape=partialRectangle;connectable=0;fillColor=none;top=0;left=0;bottom=0;right=0;align=left;spacingLeft=6;overflow=hidden;html=1;whiteSpace=wrap;fontStyle=0;fontSize=14;" vertex="1" parent="JcD0nTXZujLrFrjOI5Ah-22">
          <mxGeometry x="60" width="120" height="30" as="geometry">
            <mxRectangle width="120" height="30" as="alternateBounds" />
          </mxGeometry>
        </mxCell>
        <mxCell id="JcD0nTXZujLrFrjOI5Ah-25" value="DATETIME" style="shape=partialRectangle;connectable=0;fillColor=none;top=0;left=0;bottom=0;right=0;align=left;spacingLeft=6;overflow=hidden;html=1;whiteSpace=wrap;fontStyle=0;fontSize=14;" vertex="1" parent="JcD0nTXZujLrFrjOI5Ah-22">
          <mxGeometry x="180" width="120" height="30" as="geometry">
            <mxRectangle width="120" height="30" as="alternateBounds" />
          </mxGeometry>
        </mxCell>
        <mxCell id="JcD0nTXZujLrFrjOI5Ah-26" value="towns" style="shape=table;startSize=30;container=1;collapsible=1;childLayout=tableLayout;fixedRows=1;rowLines=0;fontStyle=0;align=center;resizeLast=1;html=1;whiteSpace=wrap;swimlaneFillColor=default;fillColor=#FFCCCC;strokeColor=#000000;fontSize=16;" vertex="1" parent="1">
          <mxGeometry x="20" y="140" width="270" height="90" as="geometry">
            <mxRectangle x="170" y="160" width="80" height="30" as="alternateBounds" />
          </mxGeometry>
        </mxCell>
        <mxCell id="JcD0nTXZujLrFrjOI5Ah-27" value="" style="shape=tableRow;horizontal=0;startSize=0;swimlaneHead=0;swimlaneBody=0;fillColor=none;collapsible=0;dropTarget=0;points=[[0,0.5],[1,0.5]];portConstraint=eastwest;top=0;left=0;right=0;bottom=1;html=1;" vertex="1" parent="JcD0nTXZujLrFrjOI5Ah-26">
          <mxGeometry y="30" width="270" height="30" as="geometry" />
        </mxCell>
        <mxCell id="JcD0nTXZujLrFrjOI5Ah-28" value="PK" style="shape=partialRectangle;connectable=0;fillColor=none;top=0;left=0;bottom=0;right=0;fontStyle=1;overflow=hidden;html=1;whiteSpace=wrap;fontSize=14;" vertex="1" parent="JcD0nTXZujLrFrjOI5Ah-27">
          <mxGeometry width="59.99999999999977" height="30" as="geometry">
            <mxRectangle width="59.99999999999977" height="30" as="alternateBounds" />
          </mxGeometry>
        </mxCell>
        <mxCell id="JcD0nTXZujLrFrjOI5Ah-29" value="id" style="shape=partialRectangle;connectable=0;fillColor=none;top=0;left=0;bottom=0;right=0;align=left;spacingLeft=6;fontStyle=5;overflow=hidden;html=1;whiteSpace=wrap;fontSize=14;" vertex="1" parent="JcD0nTXZujLrFrjOI5Ah-27">
          <mxGeometry x="59.99999999999977" width="90.00000000000023" height="30" as="geometry">
            <mxRectangle width="90.00000000000023" height="30" as="alternateBounds" />
          </mxGeometry>
        </mxCell>
        <mxCell id="JcD0nTXZujLrFrjOI5Ah-30" value="INTEGER" style="shape=partialRectangle;connectable=0;fillColor=none;top=0;left=0;bottom=0;right=0;align=left;spacingLeft=6;fontStyle=5;overflow=hidden;html=1;whiteSpace=wrap;fontSize=14;" vertex="1" parent="JcD0nTXZujLrFrjOI5Ah-27">
          <mxGeometry x="150" width="120" height="30" as="geometry">
            <mxRectangle width="120" height="30" as="alternateBounds" />
          </mxGeometry>
        </mxCell>
        <mxCell id="JcD0nTXZujLrFrjOI5Ah-31" value="" style="shape=tableRow;horizontal=0;startSize=0;swimlaneHead=0;swimlaneBody=0;fillColor=none;collapsible=0;dropTarget=0;points=[[0,0.5],[1,0.5]];portConstraint=eastwest;top=0;left=0;right=0;bottom=0;html=1;" vertex="1" parent="JcD0nTXZujLrFrjOI5Ah-26">
          <mxGeometry y="60" width="270" height="30" as="geometry" />
        </mxCell>
        <mxCell id="JcD0nTXZujLrFrjOI5Ah-32" value="" style="shape=partialRectangle;connectable=0;fillColor=none;top=0;left=0;bottom=0;right=0;editable=1;overflow=hidden;html=1;whiteSpace=wrap;fontSize=14;" vertex="1" parent="JcD0nTXZujLrFrjOI5Ah-31">
          <mxGeometry width="59.99999999999977" height="30" as="geometry">
            <mxRectangle width="59.99999999999977" height="30" as="alternateBounds" />
          </mxGeometry>
        </mxCell>
        <mxCell id="JcD0nTXZujLrFrjOI5Ah-33" value="name" style="shape=partialRectangle;connectable=0;fillColor=none;top=0;left=0;bottom=0;right=0;align=left;spacingLeft=6;overflow=hidden;html=1;whiteSpace=wrap;fontSize=14;" vertex="1" parent="JcD0nTXZujLrFrjOI5Ah-31">
          <mxGeometry x="59.99999999999977" width="90.00000000000023" height="30" as="geometry">
            <mxRectangle width="90.00000000000023" height="30" as="alternateBounds" />
          </mxGeometry>
        </mxCell>
        <mxCell id="JcD0nTXZujLrFrjOI5Ah-34" value="NVARCHAR" style="shape=partialRectangle;connectable=0;fillColor=none;top=0;left=0;bottom=0;right=0;align=left;spacingLeft=6;overflow=hidden;html=1;whiteSpace=wrap;fontSize=14;" vertex="1" parent="JcD0nTXZujLrFrjOI5Ah-31">
          <mxGeometry x="150" width="120" height="30" as="geometry">
            <mxRectangle width="120" height="30" as="alternateBounds" />
          </mxGeometry>
        </mxCell>
        <mxCell id="JcD0nTXZujLrFrjOI5Ah-35" value="customers" style="shape=table;startSize=30;container=1;collapsible=1;childLayout=tableLayout;fixedRows=1;rowLines=0;fontStyle=0;align=center;resizeLast=1;html=1;whiteSpace=wrap;swimlaneFillColor=default;fillColor=#FFFFCC;strokeColor=light-dark(#121212, #996500);fontSize=16;" vertex="1" parent="1">
          <mxGeometry x="20" y="550" width="270" height="150" as="geometry">
            <mxRectangle x="170" y="160" width="80" height="30" as="alternateBounds" />
          </mxGeometry>
        </mxCell>
        <mxCell id="JcD0nTXZujLrFrjOI5Ah-36" value="" style="shape=tableRow;horizontal=0;startSize=0;swimlaneHead=0;swimlaneBody=0;fillColor=none;collapsible=0;dropTarget=0;points=[[0,0.5],[1,0.5]];portConstraint=eastwest;top=0;left=0;right=0;bottom=1;html=1;" vertex="1" parent="JcD0nTXZujLrFrjOI5Ah-35">
          <mxGeometry y="30" width="270" height="30" as="geometry" />
        </mxCell>
        <mxCell id="JcD0nTXZujLrFrjOI5Ah-37" value="PK" style="shape=partialRectangle;connectable=0;fillColor=none;top=0;left=0;bottom=0;right=0;fontStyle=1;overflow=hidden;html=1;whiteSpace=wrap;fontSize=14;" vertex="1" parent="JcD0nTXZujLrFrjOI5Ah-36">
          <mxGeometry width="60" height="30" as="geometry">
            <mxRectangle width="60" height="30" as="alternateBounds" />
          </mxGeometry>
        </mxCell>
        <mxCell id="JcD0nTXZujLrFrjOI5Ah-38" value="id" style="shape=partialRectangle;connectable=0;fillColor=none;top=0;left=0;bottom=0;right=0;align=left;spacingLeft=6;fontStyle=5;overflow=hidden;html=1;whiteSpace=wrap;fontSize=14;" vertex="1" parent="JcD0nTXZujLrFrjOI5Ah-36">
          <mxGeometry x="60" width="90" height="30" as="geometry">
            <mxRectangle width="90" height="30" as="alternateBounds" />
          </mxGeometry>
        </mxCell>
        <mxCell id="JcD0nTXZujLrFrjOI5Ah-39" value="INTEGER" style="shape=partialRectangle;connectable=0;fillColor=none;top=0;left=0;bottom=0;right=0;align=left;spacingLeft=6;fontStyle=5;overflow=hidden;html=1;whiteSpace=wrap;fontSize=14;" vertex="1" parent="JcD0nTXZujLrFrjOI5Ah-36">
          <mxGeometry x="150" width="120" height="30" as="geometry">
            <mxRectangle width="120" height="30" as="alternateBounds" />
          </mxGeometry>
        </mxCell>
        <mxCell id="JcD0nTXZujLrFrjOI5Ah-40" value="" style="shape=tableRow;horizontal=0;startSize=0;swimlaneHead=0;swimlaneBody=0;fillColor=none;collapsible=0;dropTarget=0;points=[[0,0.5],[1,0.5]];portConstraint=eastwest;top=0;left=0;right=0;bottom=0;html=1;" vertex="1" parent="JcD0nTXZujLrFrjOI5Ah-35">
          <mxGeometry y="60" width="270" height="30" as="geometry" />
        </mxCell>
        <mxCell id="JcD0nTXZujLrFrjOI5Ah-41" value="" style="shape=partialRectangle;connectable=0;fillColor=none;top=0;left=0;bottom=0;right=0;editable=1;overflow=hidden;html=1;whiteSpace=wrap;fontSize=14;" vertex="1" parent="JcD0nTXZujLrFrjOI5Ah-40">
          <mxGeometry width="60" height="30" as="geometry">
            <mxRectangle width="60" height="30" as="alternateBounds" />
          </mxGeometry>
        </mxCell>
        <mxCell id="JcD0nTXZujLrFrjOI5Ah-42" value="name" style="shape=partialRectangle;connectable=0;fillColor=none;top=0;left=0;bottom=0;right=0;align=left;spacingLeft=6;overflow=hidden;html=1;whiteSpace=wrap;fontSize=14;" vertex="1" parent="JcD0nTXZujLrFrjOI5Ah-40">
          <mxGeometry x="60" width="90" height="30" as="geometry">
            <mxRectangle width="90" height="30" as="alternateBounds" />
          </mxGeometry>
        </mxCell>
        <mxCell id="JcD0nTXZujLrFrjOI5Ah-43" value="NVARCHAR" style="shape=partialRectangle;connectable=0;fillColor=none;top=0;left=0;bottom=0;right=0;align=left;spacingLeft=6;overflow=hidden;html=1;whiteSpace=wrap;fontSize=14;" vertex="1" parent="JcD0nTXZujLrFrjOI5Ah-40">
          <mxGeometry x="150" width="120" height="30" as="geometry">
            <mxRectangle width="120" height="30" as="alternateBounds" />
          </mxGeometry>
        </mxCell>
        <mxCell id="JcD0nTXZujLrFrjOI5Ah-44" style="shape=tableRow;horizontal=0;startSize=0;swimlaneHead=0;swimlaneBody=0;fillColor=none;collapsible=0;dropTarget=0;points=[[0,0.5],[1,0.5]];portConstraint=eastwest;top=0;left=0;right=0;bottom=0;html=1;" vertex="1" parent="JcD0nTXZujLrFrjOI5Ah-35">
          <mxGeometry y="90" width="270" height="30" as="geometry" />
        </mxCell>
        <mxCell id="JcD0nTXZujLrFrjOI5Ah-45" style="shape=partialRectangle;connectable=0;fillColor=none;top=0;left=0;bottom=0;right=0;editable=1;overflow=hidden;html=1;whiteSpace=wrap;fontSize=14;" vertex="1" parent="JcD0nTXZujLrFrjOI5Ah-44">
          <mxGeometry width="60" height="30" as="geometry">
            <mxRectangle width="60" height="30" as="alternateBounds" />
          </mxGeometry>
        </mxCell>
        <mxCell id="JcD0nTXZujLrFrjOI5Ah-46" value="phone" style="shape=partialRectangle;connectable=0;fillColor=none;top=0;left=0;bottom=0;right=0;align=left;spacingLeft=6;overflow=hidden;html=1;whiteSpace=wrap;fontSize=14;" vertex="1" parent="JcD0nTXZujLrFrjOI5Ah-44">
          <mxGeometry x="60" width="90" height="30" as="geometry">
            <mxRectangle width="90" height="30" as="alternateBounds" />
          </mxGeometry>
        </mxCell>
        <mxCell id="JcD0nTXZujLrFrjOI5Ah-47" value="NVARCHAR" style="shape=partialRectangle;connectable=0;fillColor=none;top=0;left=0;bottom=0;right=0;align=left;spacingLeft=6;overflow=hidden;html=1;whiteSpace=wrap;fontSize=14;" vertex="1" parent="JcD0nTXZujLrFrjOI5Ah-44">
          <mxGeometry x="150" width="120" height="30" as="geometry">
            <mxRectangle width="120" height="30" as="alternateBounds" />
          </mxGeometry>
        </mxCell>
        <mxCell id="JcD0nTXZujLrFrjOI5Ah-48" style="shape=tableRow;horizontal=0;startSize=0;swimlaneHead=0;swimlaneBody=0;fillColor=none;collapsible=0;dropTarget=0;points=[[0,0.5],[1,0.5]];portConstraint=eastwest;top=0;left=0;right=0;bottom=0;html=1;" vertex="1" parent="JcD0nTXZujLrFrjOI5Ah-35">
          <mxGeometry y="120" width="270" height="30" as="geometry" />
        </mxCell>
        <mxCell id="JcD0nTXZujLrFrjOI5Ah-49" style="shape=partialRectangle;connectable=0;fillColor=none;top=0;left=0;bottom=0;right=0;editable=1;overflow=hidden;html=1;whiteSpace=wrap;fontSize=14;" vertex="1" parent="JcD0nTXZujLrFrjOI5Ah-48">
          <mxGeometry width="60" height="30" as="geometry">
            <mxRectangle width="60" height="30" as="alternateBounds" />
          </mxGeometry>
        </mxCell>
        <mxCell id="JcD0nTXZujLrFrjOI5Ah-50" value="email" style="shape=partialRectangle;connectable=0;fillColor=none;top=0;left=0;bottom=0;right=0;align=left;spacingLeft=6;overflow=hidden;html=1;whiteSpace=wrap;fontSize=14;" vertex="1" parent="JcD0nTXZujLrFrjOI5Ah-48">
          <mxGeometry x="60" width="90" height="30" as="geometry">
            <mxRectangle width="90" height="30" as="alternateBounds" />
          </mxGeometry>
        </mxCell>
        <mxCell id="JcD0nTXZujLrFrjOI5Ah-51" value="NVARCHAR" style="shape=partialRectangle;connectable=0;fillColor=none;top=0;left=0;bottom=0;right=0;align=left;spacingLeft=6;overflow=hidden;html=1;whiteSpace=wrap;fontSize=14;" vertex="1" parent="JcD0nTXZujLrFrjOI5Ah-48">
          <mxGeometry x="150" width="120" height="30" as="geometry">
            <mxRectangle width="120" height="30" as="alternateBounds" />
          </mxGeometry>
        </mxCell>
        <mxCell id="JcD0nTXZujLrFrjOI5Ah-52" value="orders_items" style="shape=table;startSize=30;container=1;collapsible=1;childLayout=tableLayout;fixedRows=1;rowLines=0;fontStyle=0;align=center;resizeLast=1;html=1;whiteSpace=wrap;swimlaneFillColor=default;fillColor=light-dark(#d4e8e4, #1f2f1e);strokeColor=light-dark(#0d0d0d, #446e2c);fontSize=16;" vertex="1" parent="1">
          <mxGeometry x="780" y="140" width="310" height="150" as="geometry">
            <mxRectangle x="170" y="160" width="80" height="30" as="alternateBounds" />
          </mxGeometry>
        </mxCell>
        <mxCell id="JcD0nTXZujLrFrjOI5Ah-53" value="" style="shape=tableRow;horizontal=0;startSize=0;swimlaneHead=0;swimlaneBody=0;fillColor=none;collapsible=0;dropTarget=0;points=[[0,0.5],[1,0.5]];portConstraint=eastwest;top=0;left=0;right=0;bottom=1;html=1;fontSize=14;" vertex="1" parent="JcD0nTXZujLrFrjOI5Ah-52">
          <mxGeometry y="30" width="310" height="30" as="geometry" />
        </mxCell>
        <mxCell id="JcD0nTXZujLrFrjOI5Ah-54" value="PK, FK1" style="shape=partialRectangle;connectable=0;fillColor=none;top=0;left=0;bottom=0;right=0;fontStyle=1;overflow=hidden;html=1;whiteSpace=wrap;fontSize=14;" vertex="1" parent="JcD0nTXZujLrFrjOI5Ah-53">
          <mxGeometry width="80" height="30" as="geometry">
            <mxRectangle width="80" height="30" as="alternateBounds" />
          </mxGeometry>
        </mxCell>
        <mxCell id="JcD0nTXZujLrFrjOI5Ah-55" value="order_id" style="shape=partialRectangle;connectable=0;fillColor=none;top=0;left=0;bottom=0;right=0;align=left;spacingLeft=6;fontStyle=5;overflow=hidden;html=1;whiteSpace=wrap;fontSize=14;" vertex="1" parent="JcD0nTXZujLrFrjOI5Ah-53">
          <mxGeometry x="80" width="110" height="30" as="geometry">
            <mxRectangle width="110" height="30" as="alternateBounds" />
          </mxGeometry>
        </mxCell>
        <mxCell id="JcD0nTXZujLrFrjOI5Ah-56" value="INTEGER" style="shape=partialRectangle;connectable=0;fillColor=none;top=0;left=0;bottom=0;right=0;align=left;spacingLeft=6;fontStyle=5;overflow=hidden;html=1;whiteSpace=wrap;fontSize=14;" vertex="1" parent="JcD0nTXZujLrFrjOI5Ah-53">
          <mxGeometry x="190" width="120" height="30" as="geometry">
            <mxRectangle width="120" height="30" as="alternateBounds" />
          </mxGeometry>
        </mxCell>
        <mxCell id="JcD0nTXZujLrFrjOI5Ah-57" style="shape=tableRow;horizontal=0;startSize=0;swimlaneHead=0;swimlaneBody=0;fillColor=none;collapsible=0;dropTarget=0;points=[[0,0.5],[1,0.5]];portConstraint=eastwest;top=0;left=0;right=0;bottom=1;html=1;fontSize=14;" vertex="1" parent="JcD0nTXZujLrFrjOI5Ah-52">
          <mxGeometry y="60" width="310" height="30" as="geometry" />
        </mxCell>
        <mxCell id="JcD0nTXZujLrFrjOI5Ah-58" value="PK, FK2" style="shape=partialRectangle;connectable=0;fillColor=none;top=0;left=0;bottom=0;right=0;fontStyle=1;overflow=hidden;html=1;whiteSpace=wrap;fontSize=14;" vertex="1" parent="JcD0nTXZujLrFrjOI5Ah-57">
          <mxGeometry width="80" height="30" as="geometry">
            <mxRectangle width="80" height="30" as="alternateBounds" />
          </mxGeometry>
        </mxCell>
        <mxCell id="JcD0nTXZujLrFrjOI5Ah-59" value="item_id" style="shape=partialRectangle;connectable=0;fillColor=none;top=0;left=0;bottom=0;right=0;align=left;spacingLeft=6;fontStyle=5;overflow=hidden;html=1;whiteSpace=wrap;fontSize=14;" vertex="1" parent="JcD0nTXZujLrFrjOI5Ah-57">
          <mxGeometry x="80" width="110" height="30" as="geometry">
            <mxRectangle width="110" height="30" as="alternateBounds" />
          </mxGeometry>
        </mxCell>
        <mxCell id="JcD0nTXZujLrFrjOI5Ah-60" value="INTEGER" style="shape=partialRectangle;connectable=0;fillColor=none;top=0;left=0;bottom=0;right=0;align=left;spacingLeft=6;fontStyle=5;overflow=hidden;html=1;whiteSpace=wrap;fontSize=14;" vertex="1" parent="JcD0nTXZujLrFrjOI5Ah-57">
          <mxGeometry x="190" width="120" height="30" as="geometry">
            <mxRectangle width="120" height="30" as="alternateBounds" />
          </mxGeometry>
        </mxCell>
        <mxCell id="JcD0nTXZujLrFrjOI5Ah-61" value="" style="shape=tableRow;horizontal=0;startSize=0;swimlaneHead=0;swimlaneBody=0;fillColor=none;collapsible=0;dropTarget=0;points=[[0,0.5],[1,0.5]];portConstraint=eastwest;top=0;left=0;right=0;bottom=0;html=1;fontSize=14;" vertex="1" parent="JcD0nTXZujLrFrjOI5Ah-52">
          <mxGeometry y="90" width="310" height="30" as="geometry" />
        </mxCell>
        <mxCell id="JcD0nTXZujLrFrjOI5Ah-62" value="" style="shape=partialRectangle;connectable=0;fillColor=none;top=0;left=0;bottom=0;right=0;editable=1;overflow=hidden;html=1;whiteSpace=wrap;fontStyle=1;fontSize=14;" vertex="1" parent="JcD0nTXZujLrFrjOI5Ah-61">
          <mxGeometry width="80" height="30" as="geometry">
            <mxRectangle width="80" height="30" as="alternateBounds" />
          </mxGeometry>
        </mxCell>
        <mxCell id="JcD0nTXZujLrFrjOI5Ah-63" value="quantity" style="shape=partialRectangle;connectable=0;fillColor=none;top=0;left=0;bottom=0;right=0;align=left;spacingLeft=6;overflow=hidden;html=1;whiteSpace=wrap;fontStyle=0;fontSize=14;" vertex="1" parent="JcD0nTXZujLrFrjOI5Ah-61">
          <mxGeometry x="80" width="110" height="30" as="geometry">
            <mxRectangle width="110" height="30" as="alternateBounds" />
          </mxGeometry>
        </mxCell>
        <mxCell id="JcD0nTXZujLrFrjOI5Ah-64" value="INTEGER" style="shape=partialRectangle;connectable=0;fillColor=none;top=0;left=0;bottom=0;right=0;align=left;spacingLeft=6;overflow=hidden;html=1;whiteSpace=wrap;fontStyle=0;fontSize=14;" vertex="1" parent="JcD0nTXZujLrFrjOI5Ah-61">
          <mxGeometry x="190" width="120" height="30" as="geometry">
            <mxRectangle width="120" height="30" as="alternateBounds" />
          </mxGeometry>
        </mxCell>
        <mxCell id="JcD0nTXZujLrFrjOI5Ah-65" value="" style="shape=tableRow;horizontal=0;startSize=0;swimlaneHead=0;swimlaneBody=0;fillColor=none;collapsible=0;dropTarget=0;points=[[0,0.5],[1,0.5]];portConstraint=eastwest;top=0;left=0;right=0;bottom=0;html=1;fontSize=14;" vertex="1" parent="JcD0nTXZujLrFrjOI5Ah-52">
          <mxGeometry y="120" width="310" height="30" as="geometry" />
        </mxCell>
        <mxCell id="JcD0nTXZujLrFrjOI5Ah-66" value="" style="shape=partialRectangle;connectable=0;fillColor=none;top=0;left=0;bottom=0;right=0;editable=1;overflow=hidden;html=1;whiteSpace=wrap;fontSize=14;" vertex="1" parent="JcD0nTXZujLrFrjOI5Ah-65">
          <mxGeometry width="80" height="30" as="geometry">
            <mxRectangle width="80" height="30" as="alternateBounds" />
          </mxGeometry>
        </mxCell>
        <mxCell id="JcD0nTXZujLrFrjOI5Ah-67" value="unit_price" style="shape=partialRectangle;connectable=0;fillColor=none;top=0;left=0;bottom=0;right=0;align=left;spacingLeft=6;overflow=hidden;html=1;whiteSpace=wrap;fontStyle=0;fontSize=14;" vertex="1" parent="JcD0nTXZujLrFrjOI5Ah-65">
          <mxGeometry x="80" width="110" height="30" as="geometry">
            <mxRectangle width="110" height="30" as="alternateBounds" />
          </mxGeometry>
        </mxCell>
        <mxCell id="JcD0nTXZujLrFrjOI5Ah-68" value="DECIMAL" style="shape=partialRectangle;connectable=0;fillColor=none;top=0;left=0;bottom=0;right=0;align=left;spacingLeft=6;overflow=hidden;html=1;whiteSpace=wrap;fontStyle=0;fontSize=14;" vertex="1" parent="JcD0nTXZujLrFrjOI5Ah-65">
          <mxGeometry x="190" width="120" height="30" as="geometry">
            <mxRectangle width="120" height="30" as="alternateBounds" />
          </mxGeometry>
        </mxCell>
        <mxCell id="JcD0nTXZujLrFrjOI5Ah-69" value="items" style="shape=table;startSize=30;container=1;collapsible=1;childLayout=tableLayout;fixedRows=1;rowLines=0;fontStyle=0;align=center;resizeLast=1;html=1;whiteSpace=wrap;swimlaneFillColor=default;fillColor=#CCE5FF;strokeColor=light-dark(#121212, #996500);fontSize=16;" vertex="1" parent="1">
          <mxGeometry x="780" y="550" width="310" height="150" as="geometry">
            <mxRectangle x="170" y="160" width="80" height="30" as="alternateBounds" />
          </mxGeometry>
        </mxCell>
        <mxCell id="JcD0nTXZujLrFrjOI5Ah-70" value="" style="shape=tableRow;horizontal=0;startSize=0;swimlaneHead=0;swimlaneBody=0;fillColor=none;collapsible=0;dropTarget=0;points=[[0,0.5],[1,0.5]];portConstraint=eastwest;top=0;left=0;right=0;bottom=1;html=1;" vertex="1" parent="JcD0nTXZujLrFrjOI5Ah-69">
          <mxGeometry y="30" width="310" height="30" as="geometry" />
        </mxCell>
        <mxCell id="JcD0nTXZujLrFrjOI5Ah-71" value="PK" style="shape=partialRectangle;connectable=0;fillColor=none;top=0;left=0;bottom=0;right=0;fontStyle=1;overflow=hidden;html=1;whiteSpace=wrap;fontSize=14;" vertex="1" parent="JcD0nTXZujLrFrjOI5Ah-70">
          <mxGeometry width="80" height="30" as="geometry">
            <mxRectangle width="80" height="30" as="alternateBounds" />
          </mxGeometry>
        </mxCell>
        <mxCell id="JcD0nTXZujLrFrjOI5Ah-72" value="id" style="shape=partialRectangle;connectable=0;fillColor=none;top=0;left=0;bottom=0;right=0;align=left;spacingLeft=6;fontStyle=5;overflow=hidden;html=1;whiteSpace=wrap;fontSize=14;" vertex="1" parent="JcD0nTXZujLrFrjOI5Ah-70">
          <mxGeometry x="80" width="110" height="30" as="geometry">
            <mxRectangle width="110" height="30" as="alternateBounds" />
          </mxGeometry>
        </mxCell>
        <mxCell id="JcD0nTXZujLrFrjOI5Ah-73" value="INTEGER" style="shape=partialRectangle;connectable=0;fillColor=none;top=0;left=0;bottom=0;right=0;align=left;spacingLeft=6;fontStyle=5;overflow=hidden;html=1;whiteSpace=wrap;fontSize=14;" vertex="1" parent="JcD0nTXZujLrFrjOI5Ah-70">
          <mxGeometry x="190" width="120" height="30" as="geometry">
            <mxRectangle width="120" height="30" as="alternateBounds" />
          </mxGeometry>
        </mxCell>
        <mxCell id="JcD0nTXZujLrFrjOI5Ah-74" value="" style="shape=tableRow;horizontal=0;startSize=0;swimlaneHead=0;swimlaneBody=0;fillColor=none;collapsible=0;dropTarget=0;points=[[0,0.5],[1,0.5]];portConstraint=eastwest;top=0;left=0;right=0;bottom=0;html=1;" vertex="1" parent="JcD0nTXZujLrFrjOI5Ah-69">
          <mxGeometry y="60" width="310" height="30" as="geometry" />
        </mxCell>
        <mxCell id="JcD0nTXZujLrFrjOI5Ah-75" value="" style="shape=partialRectangle;connectable=0;fillColor=none;top=0;left=0;bottom=0;right=0;editable=1;overflow=hidden;html=1;whiteSpace=wrap;fontSize=14;" vertex="1" parent="JcD0nTXZujLrFrjOI5Ah-74">
          <mxGeometry width="80" height="30" as="geometry">
            <mxRectangle width="80" height="30" as="alternateBounds" />
          </mxGeometry>
        </mxCell>
        <mxCell id="JcD0nTXZujLrFrjOI5Ah-76" value="name" style="shape=partialRectangle;connectable=0;fillColor=none;top=0;left=0;bottom=0;right=0;align=left;spacingLeft=6;overflow=hidden;html=1;whiteSpace=wrap;fontSize=14;" vertex="1" parent="JcD0nTXZujLrFrjOI5Ah-74">
          <mxGeometry x="80" width="110" height="30" as="geometry">
            <mxRectangle width="110" height="30" as="alternateBounds" />
          </mxGeometry>
        </mxCell>
        <mxCell id="JcD0nTXZujLrFrjOI5Ah-77" value="NVARCHAR" style="shape=partialRectangle;connectable=0;fillColor=none;top=0;left=0;bottom=0;right=0;align=left;spacingLeft=6;overflow=hidden;html=1;whiteSpace=wrap;fontSize=14;" vertex="1" parent="JcD0nTXZujLrFrjOI5Ah-74">
          <mxGeometry x="190" width="120" height="30" as="geometry">
            <mxRectangle width="120" height="30" as="alternateBounds" />
          </mxGeometry>
        </mxCell>
        <mxCell id="JcD0nTXZujLrFrjOI5Ah-78" style="shape=tableRow;horizontal=0;startSize=0;swimlaneHead=0;swimlaneBody=0;fillColor=none;collapsible=0;dropTarget=0;points=[[0,0.5],[1,0.5]];portConstraint=eastwest;top=0;left=0;right=0;bottom=0;html=1;" vertex="1" parent="JcD0nTXZujLrFrjOI5Ah-69">
          <mxGeometry y="90" width="310" height="30" as="geometry" />
        </mxCell>
        <mxCell id="JcD0nTXZujLrFrjOI5Ah-79" style="shape=partialRectangle;connectable=0;fillColor=none;top=0;left=0;bottom=0;right=0;editable=1;overflow=hidden;html=1;whiteSpace=wrap;fontSize=14;" vertex="1" parent="JcD0nTXZujLrFrjOI5Ah-78">
          <mxGeometry width="80" height="30" as="geometry">
            <mxRectangle width="80" height="30" as="alternateBounds" />
          </mxGeometry>
        </mxCell>
        <mxCell id="JcD0nTXZujLrFrjOI5Ah-80" value="current_price" style="shape=partialRectangle;connectable=0;fillColor=none;top=0;left=0;bottom=0;right=0;align=left;spacingLeft=6;overflow=hidden;html=1;whiteSpace=wrap;fontSize=14;" vertex="1" parent="JcD0nTXZujLrFrjOI5Ah-78">
          <mxGeometry x="80" width="110" height="30" as="geometry">
            <mxRectangle width="110" height="30" as="alternateBounds" />
          </mxGeometry>
        </mxCell>
        <mxCell id="JcD0nTXZujLrFrjOI5Ah-81" value="DECIMAL" style="shape=partialRectangle;connectable=0;fillColor=none;top=0;left=0;bottom=0;right=0;align=left;spacingLeft=6;overflow=hidden;html=1;whiteSpace=wrap;fontSize=14;" vertex="1" parent="JcD0nTXZujLrFrjOI5Ah-78">
          <mxGeometry x="190" width="120" height="30" as="geometry">
            <mxRectangle width="120" height="30" as="alternateBounds" />
          </mxGeometry>
        </mxCell>
        <mxCell id="JcD0nTXZujLrFrjOI5Ah-86" style="shape=tableRow;horizontal=0;startSize=0;swimlaneHead=0;swimlaneBody=0;fillColor=none;collapsible=0;dropTarget=0;points=[[0,0.5],[1,0.5]];portConstraint=eastwest;top=0;left=0;right=0;bottom=0;html=1;" vertex="1" parent="JcD0nTXZujLrFrjOI5Ah-69">
          <mxGeometry y="120" width="310" height="30" as="geometry" />
        </mxCell>
        <mxCell id="JcD0nTXZujLrFrjOI5Ah-87" style="shape=partialRectangle;connectable=0;fillColor=none;top=0;left=0;bottom=0;right=0;editable=1;overflow=hidden;html=1;whiteSpace=wrap;fontSize=14;" vertex="1" parent="JcD0nTXZujLrFrjOI5Ah-86">
          <mxGeometry width="80" height="30" as="geometry">
            <mxRectangle width="80" height="30" as="alternateBounds" />
          </mxGeometry>
        </mxCell>
        <mxCell id="JcD0nTXZujLrFrjOI5Ah-88" value="description" style="shape=partialRectangle;connectable=0;fillColor=none;top=0;left=0;bottom=0;right=0;align=left;spacingLeft=6;overflow=hidden;html=1;whiteSpace=wrap;fontSize=14;" vertex="1" parent="JcD0nTXZujLrFrjOI5Ah-86">
          <mxGeometry x="80" width="110" height="30" as="geometry">
            <mxRectangle width="110" height="30" as="alternateBounds" />
          </mxGeometry>
        </mxCell>
        <mxCell id="JcD0nTXZujLrFrjOI5Ah-89" value="TEXT" style="shape=partialRectangle;connectable=0;fillColor=none;top=0;left=0;bottom=0;right=0;align=left;spacingLeft=6;overflow=hidden;html=1;whiteSpace=wrap;fontSize=14;" vertex="1" parent="JcD0nTXZujLrFrjOI5Ah-86">
          <mxGeometry x="190" width="120" height="30" as="geometry">
            <mxRectangle width="120" height="30" as="alternateBounds" />
          </mxGeometry>
        </mxCell>
        <mxCell id="JcD0nTXZujLrFrjOI5Ah-82" value="" style="edgeStyle=entityRelationEdgeStyle;fontSize=12;html=1;endArrow=ERzeroToMany;startArrow=ERmandOne;rounded=0;exitX=1;exitY=0.5;exitDx=0;exitDy=0;entryX=0;entryY=0.5;entryDx=0;entryDy=0;" edge="1" parent="1" source="JcD0nTXZujLrFrjOI5Ah-27" target="JcD0nTXZujLrFrjOI5Ah-10">
          <mxGeometry width="100" height="100" relative="1" as="geometry">
            <mxPoint x="520" y="440" as="sourcePoint" />
            <mxPoint x="620" y="340" as="targetPoint" />
          </mxGeometry>
        </mxCell>
        <mxCell id="JcD0nTXZujLrFrjOI5Ah-83" value="" style="edgeStyle=entityRelationEdgeStyle;fontSize=12;html=1;endArrow=ERzeroToMany;startArrow=ERmandOne;rounded=0;exitX=1;exitY=0.5;exitDx=0;exitDy=0;entryX=0;entryY=0.5;entryDx=0;entryDy=0;" edge="1" parent="1" source="JcD0nTXZujLrFrjOI5Ah-36" target="JcD0nTXZujLrFrjOI5Ah-18">
          <mxGeometry width="100" height="100" relative="1" as="geometry">
            <mxPoint x="380" y="230" as="sourcePoint" />
            <mxPoint x="550" y="409" as="targetPoint" />
          </mxGeometry>
        </mxCell>
        <mxCell id="JcD0nTXZujLrFrjOI5Ah-84" value="" style="edgeStyle=entityRelationEdgeStyle;fontSize=12;html=1;endArrow=ERzeroToMany;startArrow=ERmandOne;rounded=0;exitX=1;exitY=0.5;exitDx=0;exitDy=0;entryX=0;entryY=0.5;entryDx=0;entryDy=0;" edge="1" parent="1" source="JcD0nTXZujLrFrjOI5Ah-2" target="JcD0nTXZujLrFrjOI5Ah-53">
          <mxGeometry width="100" height="100" relative="1" as="geometry">
            <mxPoint x="390" y="481" as="sourcePoint" />
            <mxPoint x="570" y="420" as="targetPoint" />
          </mxGeometry>
        </mxCell>
        <mxCell id="JcD0nTXZujLrFrjOI5Ah-85" value="" style="edgeStyle=entityRelationEdgeStyle;fontSize=12;html=1;endArrow=ERzeroToMany;startArrow=ERmandOne;rounded=0;entryX=1;entryY=0.5;entryDx=0;entryDy=0;exitX=1;exitY=0.5;exitDx=0;exitDy=0;" edge="1" parent="1" source="JcD0nTXZujLrFrjOI5Ah-70" target="JcD0nTXZujLrFrjOI5Ah-57">
          <mxGeometry width="100" height="100" relative="1" as="geometry">
            <mxPoint x="1090" y="430" as="sourcePoint" />
            <mxPoint x="890" y="260" as="targetPoint" />
            <Array as="points">
              <mxPoint x="760" y="370" />
              <mxPoint x="1120" y="450" />
              <mxPoint x="1000" y="440" />
              <mxPoint x="1070" y="380" />
              <mxPoint x="1020" y="375" />
              <mxPoint x="750" y="370" />
              <mxPoint x="730" y="370" />
            </Array>
          </mxGeometry>
        </mxCell>
      </root>
    </mxGraphModel>
  </diagram>
</mxfile>
